<svg width="333" height="333" fill="none" xmlns="http://www.w3.org/2000/svg"><path d="M55.5 138.764a13.875 13.875 0 010-27.75h111a27.75 27.75 0 000-55.5c-7.631 0-14.569 3.052-19.564 8.186a13.488 13.488 0 01-9.851 4.27 13.497 13.497 0 01-9.851-4.27c-5.411-5.411-5.411-14.291 0-19.703 10.129-9.99 24.004-16.233 39.266-16.233a55.498 55.498 0 0155.5 55.5 55.5 55.5 0 01-55.5 55.5h-111zm208.125 27.75a13.875 13.875 0 000-27.75c-3.885 0-7.354 1.526-9.851 4.023a13.814 13.814 0 01-9.782 4.058c-1.817 0-3.617-.358-5.295-1.055a13.803 13.803 0 01-4.487-3.003c-5.272-5.411-5.272-14.152 0-19.563 7.493-7.493 17.899-12.21 29.415-12.21a41.623 41.623 0 0129.433 71.058 41.624 41.624 0 01-29.433 12.192H69.375a13.875 13.875 0 010-27.75h194.25zm-13.875 83.25H55.5a13.875 13.875 0 010-27.75h194.25a41.623 41.623 0 0129.433 71.058 41.624 41.624 0 01-29.433 12.192c-11.516 0-21.922-4.718-29.415-12.21-5.272-5.412-5.272-14.153 0-19.564a13.819 13.819 0 0119.564 0c2.497 2.497 5.966 4.024 9.851 4.024a13.875 13.875 0 000-27.75z" fill="#0EA5E9"/></svg>
